# xmcd
# 
# Track frame offsets:
#     150
#     13542
#     30055
#     40597
#     55522
#     68290
#     85157
#     95067
#     109680
#     126322
#     142425
#     154810
#     166610
#     181107
#     196672
#     211905
# 
# Disc length: 2982
# 
# Revision: 0
# Processed by: cddbd v1.5.2PL0 Copyright (c) Steve Scherf et al.
# Submitted via: fre:ac v1.0.31
# 
DISCID=be0ba410
DTITLE=Various Artist - Classic Country
DYEAR=0
DGENRE=Country
TTITLE0=Merle Haggard - To All the Girls I've Loved Before
TTITLE1=Bobby Goldsboro - He'll Have To Go
TTITLE2=Crystal Gayle - Crying In The Rain
TTITLE3=Slim Whitman - Blue Bayou
TTITLE4=Moe Bandy - A Wound Time Can't Erase
TTITLE5=Bobby Bare - Some Days Are Diamonds (Some Days Are Stone)
TTITLE6=Lynn Anderson - Snowbird
TTITLE7=Johnny Duncan - If I Said You Had A Beautiful Body Would You Hold It Against Me
TTITLE8=Johnny Cash - The Gambler
TTITLE9=Willie Nelson - When I Dream
TTITLE10=Tammy Wynette - Funny Face
TTITLE11=Mickey Gilley - Window Up Above
TTITLE12=George Jones - Almost Persuaded
TTITLE13=David Allan Coe - Stand By Your Man
TTITLE14=Johnny Paycheck - Mr. Bojangles
TTITLE15=Rosanne Cash with Bobby Bare - Big River
EXTD=
EXTT0=
EXTT1=
EXTT2=
EXTT3=
EXTT4=
EXTT5=
EXTT6=
EXTT7=
EXTT8=
EXTT9=
EXTT10=
EXTT11=
EXTT12=
EXTT13=
EXTT14=
EXTT15=
PLAYORDER=
